<svg xmlns="http://www.w3.org/2000/svg" width="40.375" height="33.62"><defs><filter id="a" x="939.625" y="2321.91" width="40.375" height="33.62" filterUnits="userSpaceOnUse"><feFlood result="flood" flood-color="#333"/><feComposite result="composite" operator="in" in2="SourceGraphic"/><feBlend result="blend" in2="SourceGraphic"/></filter></defs><path d="M946.356 2321.9h26.908a4.039 4.039 0 0 1 4.036 4.04v17.49a4.037 4.037 0 0 1-4.036 4.03h-26.908a4.037 4.037 0 0 1-4.036-4.03v-17.49a4.039 4.039 0 0 1 4.036-4.04zm-4.036 22.87h4.036v2.69h-4.036v-2.69zm30.944 0h4.036v2.69h-4.036v-2.69zm-26.908-18.83h26.908v24.21h-26.908v-24.21zm-4.036 24.21h34.98a2.694 2.694 0 0 1 2.691 2.69c0 1.49-2.551 2.69-4.037 2.69h-32.288c-1.486 0-4.036-1.2-4.036-2.69a2.693 2.693 0 0 1 2.69-2.69zm13.454 2.69h8.072a.842.842 0 1 1 0 1.35h-8.072a.842.842 0 1 1 0-1.35zm-5-15.16l1.894-1.9a1.345 1.345 0 0 1 1.894 0l4.735 4.76a1.347 1.347 0 0 1 0 1.9l-1.894 1.9a1.327 1.327 0 0 1-1.894 0l-4.735-4.75a1.359 1.359 0 0 1 .003-1.91zm16.167-7.44l1.9 1.9a1.347 1.347 0 0 1 0 1.9l-10.418 10.47a1.346 1.346 0 0 1-1.9 0l-1.894-1.91a1.347 1.347 0 0 1 0-1.9l10.418-10.46a1.327 1.327 0 0 1 1.897 0z" transform="translate(-939.625 -2321.91)" fill="#fed136" fill-rule="evenodd" filter="url(#a)"/></svg>